<svg width="24" height="24" viewBox="0 0 24 24" fill="none" xmlns="http://www.w3.org/2000/svg">
<path d="M11.3333 12.6667H4.66667C4.47778 12.6667 4.31944 12.6027 4.19167 12.4747C4.06389 12.3467 4 12.1881 4 11.999C4 11.8099 4.06389 11.6517 4.19167 11.5243C4.31944 11.397 4.47778 11.3333 4.66667 11.3333H11.3333V4.66667C11.3333 4.47778 11.3973 4.31944 11.5253 4.19167C11.6533 4.06389 11.8119 4 12.001 4C12.1901 4 12.3483 4.06389 12.4757 4.19167C12.603 4.31944 12.6667 4.47778 12.6667 4.66667V11.3333H19.3333C19.5222 11.3333 19.6806 11.3973 19.8083 11.5253C19.9361 11.6533 20 11.8119 20 12.001C20 12.1901 19.9361 12.3483 19.8083 12.4757C19.6806 12.603 19.5222 12.6667 19.3333 12.6667H12.6667V19.3333C12.6667 19.5222 12.6027 19.6806 12.4747 19.8083C12.3467 19.9361 12.1881 20 11.999 20C11.8099 20 11.6517 19.9361 11.5243 19.8083C11.397 19.6806 11.3333 19.5222 11.3333 19.3333V12.6667Z" fill="#333333"/>
</svg>
