<svg width="16" height="17" viewBox="0 0 16 17" fill="none" xmlns="http://www.w3.org/2000/svg">
<path d="M1.14286 15.5755H5.36257V10.2954C5.36257 10.0574 5.45105 9.85787 5.628 9.69684C5.80495 9.53599 6.02419 9.45556 6.28571 9.45556H9.71429C9.97581 9.45556 10.195 9.53599 10.372 9.69684C10.549 9.85787 10.6374 10.0574 10.6374 10.2954V15.5755H14.8571V6.53548C14.8571 6.4287 14.8315 6.33198 14.7803 6.24532C14.729 6.15865 14.6594 6.08203 14.5714 6.01547L8.41771 1.79538C8.30038 1.70213 8.16114 1.6555 8 1.6555C7.83886 1.6555 7.69962 1.70213 7.58229 1.79538L1.42857 6.01547C1.34057 6.08203 1.27095 6.15865 1.21971 6.24532C1.16848 6.33198 1.14286 6.4287 1.14286 6.53548V15.5755ZM0 15.5755V6.53548C0 6.26941 0.0654284 6.01738 0.196286 5.77939C0.326952 5.5414 0.507714 5.34545 0.738572 5.19153L6.89229 0.951416C7.21438 0.727467 7.58248 0.615494 7.99657 0.615494C8.41067 0.615494 8.78105 0.727467 9.10771 0.951416L15.2614 5.19153C15.4923 5.34545 15.673 5.5414 15.8037 5.77939C15.9346 6.01738 16 6.26941 16 6.53548V15.5755C16 15.8542 15.8861 16.0972 15.6583 16.3045C15.4305 16.5118 15.1634 16.6155 14.8571 16.6155H10.4177C10.156 16.6155 9.93676 16.535 9.76 16.374C9.58305 16.2129 9.49457 16.0134 9.49457 15.7754V10.4956H6.50543V15.7754C6.50543 16.0134 6.41695 16.2129 6.24 16.374C6.06324 16.535 5.844 16.6155 5.58229 16.6155H1.14286C0.836571 16.6155 0.569524 16.5118 0.341714 16.3045C0.113905 16.0972 0 15.8542 0 15.5755Z" fill="#333333"/>
</svg>
