<svg width="16" height="17" viewBox="0 0 16 17" fill="none" xmlns="http://www.w3.org/2000/svg">
<path d="M0 15.5755V6.53548C0 6.26941 0.0654284 6.01738 0.196286 5.77939C0.326952 5.5414 0.507714 5.34545 0.738572 5.19153L6.89229 0.951416C7.21438 0.727467 7.58248 0.615494 7.99657 0.615494C8.41067 0.615494 8.78105 0.727467 9.10771 0.951416L15.2614 5.19153C15.4923 5.34545 15.673 5.5414 15.8037 5.77939C15.9346 6.01738 16 6.26941 16 6.53548V15.5755C16 15.8542 15.8861 16.0972 15.6583 16.3045C15.4305 16.5118 15.1634 16.6155 14.8571 16.6155H10.9891C10.7274 16.6155 10.5082 16.535 10.3314 16.374C10.1545 16.2129 10.066 16.0134 10.066 15.7754V10.8154C10.066 10.5774 9.97752 10.3779 9.80057 10.2168C9.62362 10.056 9.40438 9.97556 9.14286 9.97556H6.85714C6.59562 9.97556 6.37638 10.056 6.19943 10.2168C6.02248 10.3779 5.934 10.5774 5.934 10.8154V15.7754C5.934 16.0134 5.84552 16.2129 5.66857 16.374C5.49181 16.535 5.27257 16.6155 5.01086 16.6155H1.14286C0.836571 16.6155 0.569524 16.5118 0.341714 16.3045C0.113905 16.0972 0 15.8542 0 15.5755Z" fill="#333333"/>
</svg>
