<svg width="24" height="24" viewBox="0 0 24 24" fill="none" xmlns="http://www.w3.org/2000/svg">
<path d="M6 23C4.61667 23 3.4375 22.5125 2.4625 21.5375C1.4875 20.5625 1 19.3833 1 18C1 17.7833 1.07083 17.6042 1.2125 17.4625C1.35417 17.3208 1.53333 17.25 1.75 17.25C1.96667 17.25 2.14583 17.3208 2.2875 17.4625C2.42917 17.6042 2.5 17.7833 2.5 18C2.5 18.9667 2.84167 19.7917 3.525 20.475C4.20833 21.1583 5.03333 21.5 6 21.5C6.21667 21.5 6.39583 21.5708 6.5375 21.7125C6.67917 21.8542 6.75 22.0333 6.75 22.25C6.75 22.4667 6.67917 22.6458 6.5375 22.7875C6.39583 22.9292 6.21667 23 6 23ZM22.75 5.775C22.5333 5.775 22.3542 5.70417 22.2125 5.5625C22.0708 5.42083 22 5.24167 22 5.025C22 4.175 21.7083 3.45833 21.125 2.875C20.5417 2.29167 19.825 2 18.975 2C18.7583 2 18.5792 1.92917 18.4375 1.7875C18.2958 1.64583 18.225 1.46667 18.225 1.25C18.225 1.03333 18.2958 0.854167 18.4375 0.7125C18.5792 0.570833 18.7583 0.5 18.975 0.5C20.225 0.5 21.2917 0.941667 22.175 1.825C23.0583 2.70833 23.5 3.775 23.5 5.025C23.5 5.24167 23.4292 5.42083 23.2875 5.5625C23.1458 5.70417 22.9667 5.775 22.75 5.775ZM10.05 23C9.55 23 9.08333 22.8875 8.65 22.6625C8.21667 22.4375 7.85833 22.1167 7.575 21.7L1.675 13.05C1.54167 12.85 1.48333 12.6333 1.5 12.4C1.51667 12.1667 1.61667 11.9667 1.8 11.8C2.11667 11.4833 2.49167 11.3 2.925 11.25C3.35833 11.2 3.75 11.3 4.1 11.55L7 13.575V4C7 3.71667 7.09583 3.47917 7.2875 3.2875C7.47917 3.09583 7.71667 3 8 3C8.28333 3 8.52083 3.09583 8.7125 3.2875C8.90417 3.47917 9 3.71667 9 4V15.5C9 15.9 8.82083 16.1958 8.4625 16.3875C8.10417 16.5792 7.75833 16.5583 7.425 16.325L5.3 14.825L9.225 20.55C9.30833 20.6833 9.425 20.7917 9.575 20.875C9.725 20.9583 9.88333 21 10.05 21H17C17.55 21 18.0208 20.8042 18.4125 20.4125C18.8042 20.0208 19 19.55 19 19V5C19 4.71667 19.0958 4.47917 19.2875 4.2875C19.4792 4.09583 19.7167 4 20 4C20.2833 4 20.5208 4.09583 20.7125 4.2875C20.9042 4.47917 21 4.71667 21 5V19C21 20.1 20.6083 21.0417 19.825 21.825C19.0417 22.6083 18.1 23 17 23H10.05ZM12 1C12.2833 1 12.5208 1.09583 12.7125 1.2875C12.9042 1.47917 13 1.71667 13 2V11C13 11.2833 12.9042 11.5208 12.7125 11.7125C12.5208 11.9042 12.2833 12 12 12C11.7167 12 11.4792 11.9042 11.2875 11.7125C11.0958 11.5208 11 11.2833 11 11V2C11 1.71667 11.0958 1.47917 11.2875 1.2875C11.4792 1.09583 11.7167 1 12 1ZM16 2C16.2833 2 16.5208 2.09583 16.7125 2.2875C16.9042 2.47917 17 2.71667 17 3V11C17 11.2833 16.9042 11.5208 16.7125 11.7125C16.5208 11.9042 16.2833 12 16 12C15.7167 12 15.4792 11.9042 15.2875 11.7125C15.0958 11.5208 15 11.2833 15 11V3C15 2.71667 15.0958 2.47917 15.2875 2.2875C15.4792 2.09583 15.7167 2 16 2Z" fill="#333333"/>
</svg>
