<svg width="22" height="17" viewBox="0 0 22 17" fill="none" xmlns="http://www.w3.org/2000/svg">
<path d="M0.59668 14.3937C0.59668 13.8324 0.734013 13.3498 1.00868 12.9459C1.28335 12.5422 1.65249 12.2196 2.11611 11.9779C3.10754 11.4785 4.09182 11.0803 5.06897 10.7834C6.0463 10.4866 7.2222 10.3381 8.59668 10.3381C9.97097 10.3381 11.1468 10.4866 12.1241 10.7834C13.1014 11.0803 14.0857 11.4785 15.077 11.9779C15.5406 12.2196 15.9097 12.5422 16.1844 12.9459C16.4593 13.3498 16.5967 13.8324 16.5967 14.3937V15.1287C16.5967 15.437 16.4827 15.7234 16.2547 15.9879C16.0269 16.2523 15.7453 16.3845 15.4098 16.3845H1.78325C1.44782 16.3845 1.1662 16.2639 0.938394 16.0226C0.710584 15.7816 0.59668 15.4836 0.59668 15.1287V14.3937ZM20.9044 16.3845H18.6273C18.705 16.1922 18.7669 15.9895 18.813 15.7763C18.8593 15.563 18.8824 15.3472 18.8824 15.1287V14.3378C18.8824 13.637 18.7483 12.9756 18.4801 12.3534C18.2121 11.7312 17.8319 11.1974 17.3395 10.752C17.9007 10.8729 18.4413 11.0407 18.9615 11.2554C19.4815 11.4702 19.9958 11.7117 20.5044 11.9797C20.9996 12.2433 21.3879 12.5806 21.6693 12.9916C21.9504 13.4027 22.091 13.8515 22.091 14.3378V15.1287C22.091 15.4836 21.9771 15.7816 21.7493 16.0226C21.5214 16.2639 21.2398 16.3845 20.9044 16.3845ZM8.59668 7.64021C7.65382 7.64021 6.84668 7.28498 6.17525 6.57453C5.50382 5.86408 5.16811 5.01002 5.16811 4.01237C5.16811 3.01471 5.50382 2.16065 6.17525 1.4502C6.84668 0.739748 7.65382 0.384521 8.59668 0.384521C9.53954 0.384521 10.3467 0.739748 11.0181 1.4502C11.6895 2.16065 12.0253 3.01471 12.0253 4.01237C12.0253 5.01002 11.6895 5.86408 11.0181 6.57453C10.3467 7.28498 9.53954 7.64021 8.59668 7.64021ZM16.9044 4.01237C16.9044 5.01002 16.5687 5.86408 15.8973 6.57453C15.2258 7.28498 14.4187 7.64021 13.4758 7.64021C13.4274 7.64021 13.3658 7.63446 13.291 7.62298C13.2163 7.61129 13.1548 7.59849 13.1064 7.58458C13.4936 7.08273 13.7912 6.52606 13.999 5.91456C14.207 5.30307 14.311 4.6681 14.311 4.00964C14.311 3.35119 14.2021 2.72196 13.9844 2.12196C13.7669 1.52195 13.4742 0.961449 13.1064 0.44045C13.1679 0.417272 13.2294 0.402156 13.291 0.395102C13.3525 0.388048 13.4141 0.384521 13.4758 0.384521C14.4187 0.384521 15.2258 0.739748 15.8973 1.4502C16.5687 2.16065 16.9044 3.01471 16.9044 4.01237ZM1.73954 15.1752H15.4538V14.3937C15.4538 14.11 15.3868 13.8619 15.2527 13.6494C15.1186 13.4372 14.8779 13.2341 14.5307 13.0403C13.6779 12.5582 12.779 12.1888 11.8338 11.9323C10.8889 11.6757 9.80982 11.5474 8.59668 11.5474C7.38335 11.5474 6.3042 11.6757 5.35925 11.9323C4.41411 12.1888 3.51516 12.5582 2.66239 13.0403C2.31516 13.2341 2.07449 13.4372 1.94039 13.6494C1.80649 13.8619 1.73954 14.11 1.73954 14.3937V15.1752ZM8.59668 6.43093C9.22525 6.43093 9.76335 6.19411 10.211 5.72047C10.6586 5.24684 10.8824 4.67747 10.8824 4.01237C10.8824 3.34726 10.6586 2.77789 10.211 2.30426C9.76335 1.83062 9.22525 1.5938 8.59668 1.5938C7.96811 1.5938 7.43001 1.83062 6.98239 2.30426C6.53477 2.77789 6.31097 3.34726 6.31097 4.01237C6.31097 4.67747 6.53477 5.24684 6.98239 5.72047C7.43001 6.19411 7.96811 6.43093 8.59668 6.43093Z" fill="#333333"/>
</svg>
