<svg width="22" height="17" viewBox="0 0 22 17" fill="none" xmlns="http://www.w3.org/2000/svg">
<path d="M0.59668 14.3937C0.59668 13.8324 0.734013 13.3498 1.00868 12.9459C1.28335 12.5422 1.65249 12.2195 2.11611 11.9779C3.10754 11.4784 4.09182 11.0803 5.06897 10.7834C6.0463 10.4865 7.2222 10.3381 8.59668 10.3381C9.97097 10.3381 11.1468 10.4865 12.1241 10.7834C13.1014 11.0803 14.0857 11.4784 15.077 11.9779C15.5406 12.2195 15.9097 12.5422 16.1844 12.9459C16.4593 13.3498 16.5967 13.8324 16.5967 14.3937V15.1287C16.5967 15.437 16.4827 15.7234 16.2547 15.9879C16.0269 16.2523 15.7453 16.3845 15.4098 16.3845H1.78325C1.44782 16.3845 1.1662 16.2639 0.938394 16.0226C0.710584 15.7816 0.59668 15.4836 0.59668 15.1287V14.3937ZM18.6273 16.3845C18.705 16.1922 18.7669 15.9895 18.813 15.7762C18.8593 15.563 18.8824 15.3471 18.8824 15.1287V14.3378C18.8824 13.637 18.7483 12.9755 18.4801 12.3534C18.2121 11.7312 17.8319 11.1974 17.3395 10.752C17.9007 10.8729 18.4413 11.0407 18.9615 11.2553C19.4815 11.4702 19.9958 11.7116 20.5044 11.9797C20.9996 12.2433 21.3879 12.5806 21.6693 12.9916C21.9504 13.4027 22.091 13.8515 22.091 14.3378V15.1287C22.091 15.4836 21.9771 15.7816 21.7493 16.0226C21.5214 16.2639 21.2398 16.3845 20.9044 16.3845H18.6273ZM8.59668 7.64019C7.65382 7.64019 6.84668 7.28496 6.17525 6.57451C5.50382 5.86405 5.16811 5.01 5.16811 4.01234C5.16811 3.01469 5.50382 2.16063 6.17525 1.45018C6.84668 0.739725 7.65382 0.384499 8.59668 0.384499C9.53954 0.384499 10.3467 0.739725 11.0181 1.45018C11.6895 2.16063 12.0253 3.01469 12.0253 4.01234C12.0253 5.01 11.6895 5.86405 11.0181 6.57451C10.3467 7.28496 9.53954 7.64019 8.59668 7.64019ZM16.9044 4.01234C16.9044 5.01 16.5687 5.86405 15.8973 6.57451C15.2258 7.28496 14.4187 7.64019 13.4758 7.64019C13.4274 7.64019 13.3658 7.63444 13.291 7.62295C13.2163 7.61126 13.1548 7.59847 13.1064 7.58456C13.4936 7.08271 13.7912 6.52603 13.999 5.91454C14.207 5.30305 14.311 4.66807 14.311 4.00962C14.311 3.35117 14.2021 2.72194 13.9844 2.12193C13.7669 1.52193 13.4742 0.961426 13.1064 0.440427C13.1679 0.417249 13.2294 0.402133 13.291 0.395079C13.3525 0.388025 13.4141 0.384499 13.4758 0.384499C14.4187 0.384499 15.2258 0.739725 15.8973 1.45018C16.5687 2.16063 16.9044 3.01469 16.9044 4.01234Z" fill="#333333"/>
</svg>
